# xmcd CD database file
#
# Track frame offsets:
#	225
#	15102
#	33669
#	44627
#	59877
#	78474
#	95219
#	111961
#	126547
#	139232
#	153971
#	167131
#
# Disc length: 2451 seconds
#
# Revision: 0
# Processed by: cddbd v1.5.1PL0 Copyright (c) Steve Scherf et al.
# Submitted via: CDex 1.51
#
DISCID=af09900c
DTITLE=WB MUSIC - YOUNG JAZZ ENSEMBLE COLLECTION
DYEAR=2004
DGENRE=Jazz
TTITLE0=TAKE FIVE
TTITLE1=SUMMERTIME
TTITLE2=ON GREEN DOLPHIN STREET
TTITLE3=MISTY
TTITLE4=BLUES IN THE NIGHT
TTITLE5=TASTS LIKE CHICKEN
TTITLE6=HAVE YOURSELF A MERRY LITTLE CHRISTMAS
TTITLE7=SAX TO THE MAX
TTITLE8=JUMP' AT THE WOODSIDE
TTITLE9=JUNGLE BOOGY
TTITLE10=BURRITOS TO GO
TTITLE11=NIGHT AND DAY
EXTD=YEAR: 2004
EXTT0=
EXTT1=
EXTT2=
EXTT3=
EXTT4=
EXTT5=
EXTT6=
EXTT7=
EXTT8=
EXTT9=
EXTT10=
EXTT11=
PLAYORDER=
